<?xml version="1.0" encoding="UTF-8"?>
<svg version="1.1" xmlns="http://www.w3.org/2000/svg" width="1240" height="1240">
<path d="M0 0 C1.4412305 0.49778906 2.88400819 0.99111617 4.328125 1.48046875 C8.57361087 2.92994144 12.78924808 4.45295579 17 6 C18.13179687 6.41121094 19.26359375 6.82242188 20.4296875 7.24609375 C26.17346269 9.38772142 31.72735111 11.78146502 37.25 14.4375 C43.39636406 17.39325607 49.64148017 19.78079621 56.10253906 21.95874023 C59.82725222 23.21454949 63.40907648 24.60648258 67.01220703 26.1875 C71.40144284 27.98157723 75.93553503 29.39349325 80.4375 30.875 C81.49775391 31.22578613 82.55800781 31.57657227 83.65039062 31.93798828 C99.25436434 37.14867733 99.25436434 37.14867733 115.10888672 41.50219727 C117 42 117 42 119.8203125 43.03515625 C124.43672168 44.43595854 129.09200221 44.8887828 133.875 45.4375 C135.45643799 45.62916748 135.45643799 45.62916748 137.06982422 45.82470703 C142.42376855 46.47239363 147.78062459 47.08832614 153.140625 47.68359375 C177.14116132 50.41079441 198.44950736 52.90121433 215 72 C216.3527461 73.98692118 217.68961314 75.98489105 219 78 C219.66 78.66 220.32 79.32 221 80 C230.46528699 112.53692404 227.48818729 148.79724162 226.625 182.3125 C226.60614746 183.05332825 226.58729492 183.79415649 226.56787109 184.55743408 C226.35441633 192.52532746 226.01034306 200.45847286 225.34765625 208.40234375 C224.04483955 224.41585962 224.07815572 239.67779556 225.75 255.6875 C225.84058685 256.55733521 225.93117371 257.42717041 226.02450562 258.32336426 C226.29022604 260.8044436 226.57007321 263.28328568 226.859375 265.76171875 C226.9429274 266.49253159 227.0264798 267.22334442 227.11256409 267.9763031 C227.67367794 272.47598757 228.68815427 276.66498723 230 281 C230.29980625 282.87058598 230.57165915 284.74591209 230.8125 286.625 C233.99044027 306.46229904 247.12344846 326.87079871 263.38671875 338.7421875 C264.8622974 339.72265463 266.35142109 340.68337634 267.859375 341.61328125 C270 343 270 343 272.2421875 344.9453125 C275.74452952 347.55470613 279.31258927 349.01674537 283.375 350.5625 C284.16503418 350.86696045 284.95506836 351.1714209 285.76904297 351.48510742 C293.07333387 354.20242086 300.32144998 355.67936486 308 357 C309.33809634 357.3357231 310.67265448 357.68651372 312 358.0625 C316.91870152 359.36198228 321.98199098 359.83295823 327.0234375 360.4375 C329.99046568 360.82190457 332.89821264 361.36402804 335.828125 361.96875 C340.98582299 363.02875263 346.15903214 363.7908135 351.375 364.5 C356.87619057 365.26008634 362.35417181 366.03247373 367.8125 367.0625 C374.79504428 368.27991766 381.87167299 368.70823543 388.93481445 369.21508789 C394.03650005 369.59745199 399.02327357 370.14028833 404.06640625 371.0078125 C411.82806002 372.25669485 419.57927495 372.48712153 427.42205811 372.77658081 C440.81912376 373.28804631 454.09058548 374.08447116 467.375 375.9375 C468.51839844 376.09524902 469.66179688 376.25299805 470.83984375 376.41552734 C487.88260481 378.97142878 500.74622555 385.17445696 511.57421875 399.01171875 C513.15752438 401.28907617 514.58798293 403.61202996 516 406 C516.3403125 406.57137695 516.680625 407.14275391 517.03125 407.73144531 C524.92489367 421.07252538 531.00218573 433.73967847 533.3515625 449.15625 C533.99059582 452.94425472 534.98068698 456.2539646 536.31640625 459.83203125 C537.44543454 463.41266384 537.87982361 467.09867707 538.375 470.8125 C538.88989955 473.43848768 539.5546207 475.61617812 540.46557617 478.109375 C542.07002617 482.87644337 542.75639445 487.43932767 543.17578125 492.4375 C543.25556717 493.33944092 543.33535309 494.24138184 543.41755676 495.1706543 C544.34515985 506.7685618 544.25528103 518.37371288 544.1875 530 C544.17989014 532.48518771 544.17265706 534.97037659 544.16577148 537.45556641 C544.09272471 557.33227603 543.86297248 577.20828535 543.5933876 597.08319092 C543.5626959 599.36046459 543.53305809 601.63775031 543.50350952 603.91503906 C543.45601102 607.52528016 543.40352367 611.13541835 543.34724808 614.74553299 C543.3175606 616.69753678 543.2915639 618.64959564 543.26571655 620.60165405 C542.92659885 640.94203319 542.92659885 640.94203319 540.0625 650.3125 C538.20978407 656.80367019 537.28216865 662.9940907 536.49609375 669.70703125 C535.98500495 673.09953408 535.08158456 675.79607928 533.71875 678.91015625 C532.74006024 681.75580311 532.40577243 684.58345411 532 687.5625 C531.30909566 692.53015929 530.1500854 696.44181895 528 701 C527.52654564 702.49553645 527.07837206 703.99918909 526.6484375 705.5078125 C524.98811804 711.14468687 523.06385019 716.66377349 521.0625 722.1875 C520.56073242 723.60579102 520.56073242 723.60579102 520.04882812 725.05273438 C518.11320694 730.40459641 515.92496879 735.12505202 513 740 C511.86237195 742.32720258 510.73727232 744.66057278 509.625 747 C507.01372171 752.35590746 504.14058944 756.72623371 500 761 C499.319375 761.86625 498.63875 762.7325 497.9375 763.625 C487.76265326 776.09739278 473.26585084 784.51776615 458 789 C456.93007812 789.33902344 455.86015625 789.67804687 454.7578125 790.02734375 C447.33797146 792.29784938 439.96496587 793.82076265 432.30419922 794.96118164 C429.02109004 795.4560431 425.98554548 796.00448832 422.8046875 796.9921875 C417.13379505 798.49433355 411.39101303 798.92691012 405.5625 799.5 C396.69771072 800.24399135 396.69771072 800.24399135 388.00390625 802.00390625 C382.25970812 803.59628235 376.28983904 803.88584092 370.375 804.4375 C321.21950644 809.25488352 321.21950644 809.25488352 277 830 C275.77216797 830.71736328 275.77216797 830.71736328 274.51953125 831.44921875 C271.82034823 833.11057636 269.46356444 835.00858701 267 837 C265.18885241 838.23115855 263.37631772 839.46027865 261.5625 840.6875 C257.01825196 843.96301839 254.1382166 847.10151451 251.2734375 851.87890625 C249.46000494 854.89943962 247.38837217 857.41259681 245 860 C244.34 860 243.68 860 243 860 C242.74476563 860.69351563 242.48953125 861.38703125 242.2265625 862.1015625 C240.84456056 865.3673123 239.16591143 868.31403982 237.375 871.375 C229.00236406 885.78350777 229.00236406 885.78350777 221.984375 900.875 C221 903 221 903 219.25390625 905.9375 C216.09390045 911.39529597 213.7092381 917.22881656 211.1875 923 C204.56368514 938.04700064 204.56368514 938.04700064 201.0625 945.4375 C195.75627759 956.74373661 191.53890966 968.04221052 188 980 C187.64164063 981.19238281 187.28328125 982.38476562 186.9140625 983.61328125 C186.07762101 986.7124042 185.51410532 989.70085978 185.0625 992.875 C184.34590198 997.4115733 183.2685166 1001.50495422 181.70703125 1005.8125 C180.97299026 1008.08356605 180.57081887 1010.27088007 180.1875 1012.625 C176.18592485 1033.568728 163.14439489 1056.55120371 146 1069 C145.27296875 1069.5671875 144.5459375 1070.134375 143.796875 1070.71875 C140.02285098 1073.65730305 136.36812972 1075.99794055 132 1078 C131.43023438 1078.30550781 130.86046875 1078.61101562 130.2734375 1078.92578125 C118.40838469 1085.24892668 105.75480727 1087.43070644 92.60888672 1089.43945312 C89.45588727 1089.92918975 86.31043992 1090.45358903 83.16427612 1090.98501587 C54.4608151 1095.75048807 25.74747563 1095.90895718 -3.28747559 1095.98822021 C-6.96807549 1095.9998987 -10.64855063 1096.01939572 -14.32910156 1096.04150391 C-21.30271882 1096.08251408 -28.27628284 1096.10877907 -35.25 1096.125 C-36.30044495 1096.12795074 -37.35088989 1096.13090149 -38.4331665 1096.13394165 C-58.12694301 1096.17185992 -77.65873982 1095.75479523 -97.1875 1093.0625 C-99.94741468 1092.69408297 -102.70805708 1092.33128307 -105.46875 1091.96875 C-107.4178125 1091.71158203 -107.4178125 1091.71158203 -109.40625 1091.44921875 C-113.24396367 1090.96950454 -117.07993438 1090.59491928 -120.93237305 1090.26000977 C-145.78486202 1088.08336545 -174.2905083 1080.81044008 -194 1065 C-194.99 1064.319375 -195.98 1063.63875 -197 1062.9375 C-206.27892778 1054.95153757 -209.46791449 1043.41584316 -212 1032 C-212.33 1031.01 -212.66 1030.02 -213 1029 C-213.09394092 1027.01680278 -213.18314226 1025.03318385 -213.24023438 1023.04858398 C-213.50859881 1014.04840224 -214.71129816 1005.58827682 -216.55566406 996.78540039 C-217.87585001 990.26833988 -218.41211078 983.96174504 -218.63891602 977.32714844 C-218.87414838 971.47975684 -219.87875627 966.02283181 -221.2421875 960.32421875 C-222.25201857 955.89449584 -222.8698846 951.43819497 -223.47265625 946.9375 C-223.93168481 943.96075214 -223.93168481 943.96075214 -225 941.0546875 C-226.09065523 937.72307661 -226.5307397 934.60376907 -226.9375 931.125 C-227.67566864 925.58582904 -228.90619778 921.14726378 -231 916 C-231.32287819 914.61518148 -231.61831961 913.22376909 -231.890625 911.828125 C-232.9192407 907.04886086 -234.45603614 902.60347103 -236.25 898.0625 C-236.559375 897.27472168 -236.86875 896.48694336 -237.1875 895.67529297 C-239.22500253 890.61598214 -241.49553519 885.92920662 -244.484375 881.3515625 C-246 879 -246 879 -247.578125 876.0859375 C-253.99434691 864.24291107 -262.95218004 856.4774879 -274 849 C-274.61875 848.55140625 -275.2375 848.1028125 -275.875 847.640625 C-285.57774425 840.96998833 -297.65158193 836.92568815 -309.0859375 834.61328125 C-311.81965976 834.03795364 -314.40556841 833.2936224 -317.0625 832.4375 C-320.53719116 831.35339636 -323.89934261 830.65349155 -327.5 830.125 C-332.52943026 829.34731877 -337.30696712 828.15350584 -342.1875 826.75 C-357.29995953 822.42537564 -372.66327584 818.09173202 -388.328125 816.421875 C-391 816 -391 816 -393.34521484 815.01806641 C-396.03598957 813.98619859 -398.29005321 813.58232462 -401.1484375 813.2890625 C-402.14254639 813.18094238 -403.13665527 813.07282227 -404.16088867 812.96142578 C-405.22154541 812.85040527 -406.28220215 812.73938477 -407.375 812.625 C-448.61390526 807.94211664 -448.61390526 807.94211664 -463 799 C-464.12792969 798.36964844 -465.25585938 797.73929688 -466.41796875 797.08984375 C-477.8607629 790.55331387 -485.46090781 782.56534751 -493 772 C-494.284181 770.38983459 -495.57501799 768.78493552 -496.875 767.1875 C-499.8732557 763.33460132 -501.96475654 759.41656072 -504 755 C-504.85270024 753.35340644 -505.7069412 751.70761009 -506.5625 750.0625 C-508.47864817 746.23020367 -510.00811273 742.4356834 -511.27124023 738.34423828 C-512.89034798 733.13597277 -514.66309663 727.97619639 -516.4296875 722.81640625 C-520.01100516 712.31006464 -523.17867256 701.73524774 -526 691 C-526.27275757 689.98558838 -526.27275757 689.98558838 -526.55102539 688.95068359 C-527.68839708 684.60513934 -528.42155132 680.34655519 -528.9375 675.875 C-529.57020605 670.84324325 -530.383908 665.94669921 -531.5 661 C-533.13139944 653.71198943 -534.0866017 646.40696939 -535 639 C-535.3318302 636.58312648 -535.66517361 634.16646026 -536 631.75 C-536.88514263 625.16675169 -537.59439377 618.57339364 -538.21484375 611.95996094 C-538.62315856 607.8212963 -539.20618264 603.78260054 -540 599.69921875 C-541.1309472 593.67273621 -541.60835268 587.67630202 -542 581.5625 C-542.11964111 579.77078369 -542.11964111 579.77078369 -542.24169922 577.94287109 C-542.45684994 574.66024993 -542.66462309 571.37726884 -542.86853027 568.09393311 C-543.00294022 565.95317076 -543.14206717 563.81275643 -543.28222656 561.67236328 C-544.32726755 545.62068865 -545.18329165 529.58884139 -545.25 513.5 C-545.25918457 512.30906738 -545.26836914 511.11813477 -545.27783203 509.89111328 C-545.25448446 503.34538851 -544.68773883 497.17684328 -543.49462891 490.74169922 C-542.81031823 486.94860501 -542.4434409 483.1452319 -542.0625 479.3125 C-541.4920354 474.05553836 -540.69470567 469.23032357 -538.77734375 464.2890625 C-537.76226007 461.29992162 -537.22248725 458.28633217 -536.625 455.1875 C-535.21165227 448.34895812 -532.9449908 442.31321381 -530 436 C-529.63132812 435.15953125 -529.26265625 434.3190625 -528.8828125 433.453125 C-522.51853802 419.67117889 -511.88056492 409.27137889 -501 399 C-499.77603516 397.81083984 -499.77603516 397.81083984 -498.52734375 396.59765625 C-484.33329723 384.04852727 -455.92456351 387.0607312 -438.12133789 386.3918457 C-429.67335077 386.04746448 -421.37220925 385.14929125 -413 384 C-410.54173095 383.66619294 -408.08339835 383.33285351 -405.625 383 C-404.3978125 382.83242188 -403.170625 382.66484375 -401.90625 382.4921875 C-398.42404033 382.05342908 -394.94637902 381.68886775 -391.45361328 381.3515625 C-382.83739225 380.51324701 -374.30051356 379.35585824 -365.75 378 C-364.16082764 377.75080811 -364.16082764 377.75080811 -362.53955078 377.49658203 C-357.2237587 376.63256404 -352.17810696 375.49758976 -347 374 C-344.7544636 373.71265648 -342.50369451 373.46415197 -340.25 373.25 C-313.85359405 369.86250467 -291.3864296 357.15875925 -274.265625 336.953125 C-271.27948454 332.93473845 -269.08695874 328.52878495 -267 324 C-266.67128906 323.2884375 -266.34257812 322.576875 -266.00390625 321.84375 C-264.97653434 319.57313816 -263.98681715 317.28849425 -263 315 C-262.48759766 313.87851562 -262.48759766 313.87851562 -261.96484375 312.734375 C-256.57271486 300.35093071 -255.41194252 286.60270339 -254.06469727 273.29223633 C-253.81160422 270.80369219 -253.54422356 268.3169659 -253.27539062 265.83007812 C-251.90835633 252.87735372 -251.85498321 240.48924685 -252.9375 227.5 C-254.25034874 210.3484532 -254.72809259 193.19575231 -255 176 C-255.0180368 174.86706512 -255.0180368 174.86706512 -255.03643799 173.71124268 C-256.15447247 99.62110343 -256.15447247 99.62110343 -242 85 C-239.1875 82.75 -239.1875 82.75 -236 81 C-234.39234967 80.04752224 -232.78852185 79.08857797 -231.1875 78.125 C-230.32125 77.61066406 -229.455 77.09632813 -228.5625 76.56640625 C-226.21527099 75.13159096 -223.95192726 73.62345629 -221.6875 72.0625 C-217.00592568 68.89164647 -212.06410898 66.29797992 -207.0703125 63.65625 C-203.94078722 61.96805825 -200.94018516 60.16092067 -197.94921875 58.2421875 C-195.69811528 56.80761655 -193.41550743 55.43325329 -191.125 54.0625 C-190.28710938 53.56105469 -189.44921875 53.05960938 -188.5859375 52.54296875 C-186.84203144 51.50242057 -185.09721852 50.46339095 -183.3515625 49.42578125 C-179.80220075 47.31002057 -176.29297145 45.19922058 -172.875 42.875 C-170.65358388 41.42625036 -168.62677216 40.3096016 -166.25 39.1875 C-162.99253387 37.61429192 -160.17222808 35.75579131 -157.25 33.625 C-152.7685999 30.39646444 -148.1614044 27.96367749 -143.15234375 25.65234375 C-139.72436178 23.85552049 -136.61500194 21.77829754 -133.41577148 19.60766602 C-129.38602339 16.92591855 -125.22336162 14.47141664 -121.0625 12 C-120.23298828 11.505 -119.40347656 11.01 -118.54882812 10.5 C-116.87818495 9.50306608 -115.20680188 8.50737097 -113.53466797 7.51293945 C-111.79609412 6.47518737 -110.06090322 5.4317529 -108.32861328 4.38354492 C-78.44924359 -13.69111558 -32.32641974 -12.1053576 0 0 Z M94.6875 418.9375 C89.23354599 419.66048311 83.88022688 420.11650239 78.375 420.3125 C70.33913059 420.78970964 63.45352737 423.22850138 56 426 C54.00239666 426.6532087 52.00250795 427.29948542 50 427.9375 C40.20026106 431.21288444 30.49803999 434.91820995 21.44140625 439.921875 C14.03689539 443.19170699 6.79244815 443.38577724 -1.1875 443.375 C-2.29867187 443.37483887 -3.40984375 443.37467773 -4.5546875 443.37451172 C-12.83917542 443.2591796 -19.27970773 442.01592111 -27 439 C-28.63826286 438.61231948 -30.28422559 438.25512415 -31.9375 437.9375 C-34.701653 437.37868206 -36.28597676 436.84112402 -38.8125 435.4375 C-42.06704112 433.96976577 -44.0443919 433.75590385 -47.5625 433.5625 C-53.36462564 433.21781927 -58.32494555 431.80566856 -63.8203125 429.98046875 C-67.66773194 428.79410231 -71.48966323 428.0943014 -75.46484375 427.4921875 C-78 427 -78 427 -80.84375 425.984375 C-90.65834935 422.92338609 -102.79258083 423.76460878 -113 424 C-113.80211914 424.01256836 -114.60423828 424.02513672 -115.43066406 424.03808594 C-130.26380375 424.30383506 -144.5866401 425.13735075 -158 432 C-160.56092808 432.80989819 -163.13033819 433.48524856 -165.73046875 434.15625 C-168.03174993 434.83036535 -168.03174993 434.83036535 -169.42016602 436.43603516 C-171.06669778 438.06602781 -172.46193309 438.88419191 -174.546875 439.8671875 C-175.2275 440.19589844 -175.908125 440.52460938 -176.609375 440.86328125 C-178.02066815 441.53029754 -179.43212283 442.19697216 -180.84375 442.86328125 C-185.62306519 445.17208577 -189.71413094 447.87088913 -194 451 C-194.825 451.268125 -195.65 451.53625 -196.5 451.8125 C-199.99883353 453.47444593 -201.86051099 456.10429834 -204.30859375 459.0546875 C-206 461 -206 461 -208.5625 463 C-214.10557642 467.54816527 -217.43649342 473.27947782 -219.9453125 479.921875 C-221 482 -221 482 -222.83984375 483.79296875 C-225.70923784 486.72462817 -227.47720507 489.9813697 -229.4375 493.5625 C-230.02845459 494.63322754 -230.02845459 494.63322754 -230.63134766 495.72558594 C-235.39674528 504.44742205 -239.21730625 512.72763225 -241.421875 522.46875 C-242 525 -242 525 -243 528 C-243.1204412 530.48072366 -243.18805864 532.93250409 -243.203125 535.4140625 C-243.20882507 536.14313812 -243.21452515 536.87221375 -243.22039795 537.62338257 C-243.22984093 539.1683406 -243.23637915 540.7133187 -243.24023438 542.25830078 C-243.2498793 544.59574805 -243.28088231 546.93229254 -243.3125 549.26953125 C-243.36702277 557.06039145 -243.04802021 563.70956997 -240 571 C-239.69912835 572.36874101 -239.4250724 573.74386458 -239.1875 575.125 C-237.0742474 585.27935782 -232.23040579 595.60831016 -227 604.5 C-225.74287816 606.66663044 -224.60465987 608.80715277 -223.5 611.0625 C-221.88498542 614.22523688 -219.99747071 617.06621489 -218 620 C-217.566875 620.78375 -217.13375 621.5675 -216.6875 622.375 C-214.2064265 626.23444766 -211.2944842 629.80077799 -208 633 C-207.34 633 -206.68 633 -206 633 C-205.67515625 633.83144531 -205.67515625 633.83144531 -205.34375 634.6796875 C-203.56932776 637.74366079 -201.13287437 639.82036196 -198.5 642.125 C-192.7986451 647.22680252 -187.36844071 652.54782278 -182 658 C-181.20722656 658.79148437 -180.41445313 659.58296875 -179.59765625 660.3984375 C-177.73821799 662.26067191 -175.89187787 664.13176922 -174.0546875 666.015625 C-168.15350797 672.03612305 -162.1816998 677.68891925 -155.5703125 682.94140625 C-149.71866523 687.62805991 -144.29706676 692.70293324 -139 698 C-137.03650912 699.73770959 -135.05553453 701.45252694 -133.0625 703.15625 C-130.60932167 705.34924275 -128.31412941 707.65986914 -126 710 C-124.65693681 711.34443646 -123.31311881 712.6881191 -121.96875 714.03125 C-104 732 -104 732 -101.5625 734.46875 C-98.77365477 737.22358493 -95.90435454 739.86838942 -93 742.5 C-88.56329487 746.52006023 -84.29758663 750.66106863 -80.10058594 754.93359375 C-68.17497685 767.11113037 -68.17497685 767.11113037 -55.25 778.19140625 C-52.51224488 780.39206705 -50.10274501 782.8104685 -47.66015625 785.328125 C-44.60329722 788.40656185 -41.30456505 791.19314528 -38 794 C-37.12988281 794.75925781 -36.25976562 795.51851562 -35.36328125 796.30078125 C-26.68822262 804.14989695 -26.68822262 804.14989695 -15.7578125 806.890625 C-13.42739759 806.42292927 -11.25407668 805.75004303 -9 805 C-7.97326172 804.78730469 -7.97326172 804.78730469 -6.92578125 804.5703125 C-0.51738968 803.03040325 3.99693485 799.16962051 8.9519043 795.02368164 C12.46833576 792.09357223 15.82191269 789.95455586 20 788 C21.68704193 786.69254251 23.35360035 785.35827971 25 784 C26.99110263 782.65341614 28.99271227 781.32233647 31 780 C32.17223344 779.22319689 33.34409749 778.4458361 34.515625 777.66796875 C35.12156494 777.26578125 35.72750488 776.86359375 36.35180664 776.44921875 C44.17049134 771.25218177 51.91356166 765.96945611 59.51171875 760.453125 C60.12974365 760.00646484 60.74776855 759.55980469 61.38452148 759.09960938 C62.59392696 758.22464622 63.80065074 757.34595954 65.00415039 756.46289062 C68.53298052 753.91122038 72.10470877 751.92570031 76 750 C77.69531053 748.72052823 77.69531053 748.72052823 79.125 747.3125 C84.67073965 742.36094674 91.04562035 738.28641857 97.47265625 734.5703125 C100.60380331 732.62483937 103.43570214 730.35698274 106.3125 728.0625 C109.92577384 725.21945221 113.3756575 722.58463117 117.5625 720.625 C120.94983229 719.02371565 122.42588849 717.61790547 125 715 C126.47252205 713.87960279 127.97468184 712.79738514 129.5 711.75 C130.38042969 711.14285156 131.26085937 710.53570313 132.16796875 709.91015625 C135.03351279 707.9773962 137.92196111 706.08262152 140.8125 704.1875 C146.44521159 700.46627634 151.72057854 696.40725748 156.9921875 692.19921875 C159.90471772 690.06966744 162.7725354 688.59040634 166 687 C170.12229979 684.16057359 174.0468389 681.06922446 178 678 C178.92425781 677.30777344 179.84851563 676.61554688 180.80078125 675.90234375 C186.24124948 671.69011437 190.93473552 667.1155412 195.4375 661.9375 C196.18193359 661.08925659 196.18193359 661.08925659 196.94140625 660.22387695 C199.96833603 656.63198231 202.15140598 653.04607977 204.08251953 648.76245117 C205.53031193 645.98128744 207.7185197 644.11454272 210 642 C213.40260013 638.26543888 215.75118555 634.82441279 217.90234375 630.26953125 C219.18035749 627.62709004 220.58179795 625.06982476 222 622.5 C226.18464236 614.8438874 229.71658875 607.34752958 232.76953125 599.15625 C233.79295174 596.53109522 234.92599755 594.0761257 236.1875 591.5625 C238.45578022 586.65244764 238.92680205 581.57018523 239.5078125 576.234375 C240 573 240 573 241.00268555 570.63720703 C242.07270793 567.8077378 242.32618974 565.58439201 242.44921875 562.5703125 C242.49336914 561.53471191 242.53751953 560.49911133 242.58300781 559.43212891 C242.61749023 558.34077637 242.65197266 557.24942383 242.6875 556.125 C242.72584961 555.00399902 242.76419922 553.88299805 242.80371094 552.72802734 C243.13630055 541.31625202 243.09045828 530.49131264 239.68359375 519.48828125 C239.01318454 517.04799171 238.73842429 514.83122089 238.5625 512.3125 C238.21077252 508.33797949 236.998065 505.59146388 235.08203125 502.125 C233.91531029 499.83367797 233.16203161 497.57188501 232.375 495.125 C226.55182093 478.99412465 217.17989025 466.83404151 205 455 C204.34741211 454.34918457 203.69482422 453.69836914 203.02246094 453.02783203 C193.6263169 443.52671883 193.6263169 443.52671883 182.1484375 436.89453125 C179.59892057 435.83300511 177.3669356 434.42016136 175 433 C167.68027366 429.52509163 160.10497414 426.97182114 152.34448242 424.69970703 C149.1632622 423.7543537 146.787871 422.85858067 144 421 C141.1001995 420.44589389 141.1001995 420.44589389 137.78515625 420.1484375 C136.54056641 420.01953125 135.29597656 419.890625 134.01367188 419.7578125 C132.0578418 419.56832031 132.0578418 419.56832031 130.0625 419.375 C128.79341797 419.2409375 127.52433594 419.106875 126.21679688 418.96875 C115.58303161 417.89937186 105.29006323 417.50075305 94.6875 418.9375 Z " fill="#A80C0F" transform="translate(614,55)"/>
<path d="M0 0 C0 3 0 3 -2.01953125 5.36010742 C-3.40205078 6.71906128 -3.40205078 6.71906128 -4.8125 8.10546875 C-5.30081299 8.5895369 -5.78912598 9.07360504 -6.29223633 9.57234192 C-7.85459826 11.1179014 -9.42706327 12.65271107 -11 14.1875 C-12.06057762 15.23303282 -13.12048229 16.27924873 -14.1796875 17.32617188 C-16.77869434 19.89208902 -19.3868639 22.44846467 -22 25 C-22 17.56411777 -11.59714937 10.47861231 -6.55078125 5.41796875 C-4.44590817 3.4226909 -2.36581253 1.66770391 0 0 Z " fill="#BB4548" transform="translate(117,451)"/>
</svg>
